%
M48
M72
T01C0.0200
T02C0.0400
T03C0.0470
%
T01
X1600Y1800
X3700Y2600
X5900Y4800
X7900Y4100
X9900Y4800
X12400Y7000
X10400Y7900
X8400Y7100
X6400Y7900
X8000Y9200
X8000Y11800
X5900Y13500
X3900Y14100
X4100Y11900
X600Y12100
X4100Y9200
X600Y6300
X7500Y1900
X9700Y1800
X9700Y600
X12000Y1600
X15900Y3500
X17200Y3600
X19200Y4500
X16200Y6200
X18900Y7200
X15900Y9100
X15900Y11800
X13800Y13700
X16100Y14400
X16000Y16000
X12100Y16400
X9900Y13600
X12000Y11800
X12100Y9300
X8000Y16500
X8000Y20400
X600Y18700
X16800Y20400
X22100Y20400
X22900Y15800
X22900Y9000
X22900Y5600
X22600Y1000
T02
X2000Y1000
X3000Y1000
X4000Y1000
X5000Y1000
X6000Y1000
X7000Y1000
X8000Y1000
X9000Y1000
X10500Y1000
X11500Y1000
X12500Y1000
X13500Y1000
X14500Y1000
X15500Y1000
X16500Y1000
X17500Y1000
X18500Y1000
X19500Y1000
X15280Y8260
X15280Y10040
X15280Y10960
X12720Y10960
X12720Y10040
X11280Y10040
X11280Y10960
X11280Y12740
X12720Y12740
X15280Y12740
X12720Y8260
X11280Y8260
X8720Y8260
X7280Y8260
X7280Y10040
X7280Y10960
X8720Y10960
X8720Y10040
X8720Y12740
X7280Y12740
X4720Y12740
X4720Y10960
X4720Y10040
X4720Y8260
X5000Y20000
X6000Y20000
X7000Y20000
X9000Y20000
X10000Y20000
X11000Y20000
X12000Y20000
X13000Y20000
X14000Y20000
X15000Y20000
X16000Y20000
X4000Y20000
X3000Y20000
X2000Y20000
T03
X5000Y16750
X7000Y16750
X9000Y16750
X11000Y16750
X13000Y16750
X15000Y16750
X20350Y11500
X20350Y9500
X15000Y4150
X13000Y4150
X11000Y4150
X9000Y4150
X7000Y4150
X5000Y4150
M30
