%
M48
M72
T01C0.0250
T02C0.0512
T03C0.1250
%
T01
X3500Y500
X500Y3500
X500Y7500
X500Y12000
X3500Y15000
X5300Y12400
X9950Y10400
X10950Y10900
X10650Y12400
X10000Y15000
X15850Y15000
X18500Y12000
X14450Y7900
X10550Y7400
X10150Y8700
X8100Y5900
X13450Y4400
X15850Y500
X18500Y3500
X18500Y7500
X10000Y500
T02
X9531Y4300
X11500Y4300
X15440Y4392
X15440Y6392
X15440Y8392
X15440Y10392
X3310Y10408
X3310Y8408
X3310Y6408
X3310Y4408
T03
X1500Y1500
X1500Y14000
X17500Y14000
X17500Y1500
M30
